<svg width="183" height="70" viewBox="0 0 183 70" fill="none" xmlns="http://www.w3.org/2000/svg">
<path d="M25.8516 20.9922C24.9297 20.8672 24.1172 20.8047 23.4141 20.8047C20.8516 20.8047 19.1719 21.6719 18.375 23.4062V40H11.6016V14.6406H18L18.1875 17.6641C19.5469 15.3359 21.4297 14.1719 23.8359 14.1719C24.5859 14.1719 25.2891 14.2734 25.9453 14.4766L25.8516 20.9922ZM27.2344 27.0859C27.2344 24.5703 27.7188 22.3281 28.6875 20.3594C29.6562 18.3906 31.0469 16.8672 32.8594 15.7891C34.6875 14.7109 36.8047 14.1719 39.2109 14.1719C42.6328 14.1719 45.4219 15.2188 47.5781 17.3125C49.75 19.4062 50.9609 22.25 51.2109 25.8438L51.2578 27.5781C51.2578 31.4688 50.1719 34.5938 48 36.9531C45.8281 39.2969 42.9141 40.4688 39.2578 40.4688C35.6016 40.4688 32.6797 39.2969 30.4922 36.9531C28.3203 34.6094 27.2344 31.4219 27.2344 27.3906V27.0859ZM34.0078 27.5781C34.0078 29.9844 34.4609 31.8281 35.3672 33.1094C36.2734 34.375 37.5703 35.0078 39.2578 35.0078C40.8984 35.0078 42.1797 34.3828 43.1016 33.1328C44.0234 31.8672 44.4844 29.8516 44.4844 27.0859C44.4844 24.7266 44.0234 22.8984 43.1016 21.6016C42.1797 20.3047 40.8828 19.6562 39.2109 19.6562C37.5547 19.6562 36.2734 20.3047 35.3672 21.6016C34.4609 22.8828 34.0078 24.875 34.0078 27.5781ZM65.9766 35.0078C67.2266 35.0078 68.2422 34.6641 69.0234 33.9766C69.8047 33.2891 70.2109 32.375 70.2422 31.2344H76.5938C76.5781 32.9531 76.1094 34.5312 75.1875 35.9688C74.2656 37.3906 73 38.5 71.3906 39.2969C69.7969 40.0781 68.0312 40.4688 66.0938 40.4688C62.4688 40.4688 59.6094 39.3203 57.5156 37.0234C55.4219 34.7109 54.375 31.5234 54.375 27.4609V27.0156C54.375 23.1094 55.4141 19.9922 57.4922 17.6641C59.5703 15.3359 62.4219 14.1719 66.0469 14.1719C69.2188 14.1719 71.7578 15.0781 73.6641 16.8906C75.5859 18.6875 76.5625 21.0859 76.5938 24.0859H70.2422C70.2109 22.7734 69.8047 21.7109 69.0234 20.8984C68.2422 20.0703 67.2109 19.6562 65.9297 19.6562C64.3516 19.6562 63.1562 20.2344 62.3438 21.3906C61.5469 22.5312 61.1484 24.3906 61.1484 26.9688V27.6719C61.1484 30.2812 61.5469 32.1562 62.3438 33.2969C63.1406 34.4375 64.3516 35.0078 65.9766 35.0078ZM89.6719 29.8281L87.2344 32.2656V40H80.4609V4H87.2344V23.9453L88.5469 22.2578L95.0391 14.6406H103.172L94.0078 25.2109L103.969 40H96.1875L89.6719 29.8281ZM117.305 40.4688C113.586 40.4688 110.555 39.3281 108.211 37.0469C105.883 34.7656 104.719 31.7266 104.719 27.9297V27.2734C104.719 24.7266 105.211 22.4531 106.195 20.4531C107.18 18.4375 108.57 16.8906 110.367 15.8125C112.18 14.7188 114.242 14.1719 116.555 14.1719C120.023 14.1719 122.75 15.2656 124.734 17.4531C126.734 19.6406 127.734 22.7422 127.734 26.7578V29.5234H111.586C111.805 31.1797 112.461 32.5078 113.555 33.5078C114.664 34.5078 116.062 35.0078 117.75 35.0078C120.359 35.0078 122.398 34.0625 123.867 32.1719L127.195 35.8984C126.18 37.3359 124.805 38.4609 123.07 39.2734C121.336 40.0703 119.414 40.4688 117.305 40.4688ZM116.531 19.6562C115.188 19.6562 114.094 20.1094 113.25 21.0156C112.422 21.9219 111.891 23.2188 111.656 24.9062H121.078V24.3672C121.047 22.8672 120.641 21.7109 119.859 20.8984C119.078 20.0703 117.969 19.6562 116.531 19.6562ZM139.711 8.40625V14.6406H144.047V19.6094H139.711V32.2656C139.711 33.2031 139.891 33.875 140.25 34.2812C140.609 34.6875 141.297 34.8906 142.312 34.8906C143.062 34.8906 143.727 34.8359 144.305 34.7266V39.8594C142.977 40.2656 141.609 40.4688 140.203 40.4688C135.453 40.4688 133.031 38.0703 132.938 33.2734V19.6094H129.234V14.6406H132.938V8.40625H139.711Z" fill="#8911C1"/>
<path d="M163.734 31.0234C163.734 29.7422 163.375 28.7266 162.656 27.9766C161.953 27.2109 160.75 26.5078 159.047 25.8672C157.344 25.2266 155.875 24.5938 154.641 23.9688C153.406 23.3281 152.344 22.6016 151.453 21.7891C150.578 20.9609 149.891 19.9922 149.391 18.8828C148.906 17.7734 148.664 16.4531 148.664 14.9219C148.664 12.2812 149.508 10.1172 151.195 8.42969C152.883 6.74219 155.125 5.75781 157.922 5.47656V0.460938H161.672V5.54688C164.438 5.9375 166.602 7.09375 168.164 9.01562C169.727 10.9219 170.508 13.3984 170.508 16.4453H163.734C163.734 14.5703 163.344 13.1719 162.562 12.25C161.797 11.3125 160.766 10.8438 159.469 10.8438C158.188 10.8438 157.195 11.2109 156.492 11.9453C155.789 12.6641 155.438 13.6641 155.438 14.9453C155.438 16.1328 155.781 17.0859 156.469 17.8047C157.156 18.5234 158.43 19.2578 160.289 20.0078C162.164 20.7578 163.703 21.4688 164.906 22.1406C166.109 22.7969 167.125 23.5469 167.953 24.3906C168.781 25.2188 169.414 26.1719 169.852 27.25C170.289 28.3125 170.508 29.5547 170.508 30.9766C170.508 33.6328 169.68 35.7891 168.023 37.4453C166.367 39.1016 164.086 40.0781 161.18 40.375V45.0391H157.453V40.3984C154.25 40.0547 151.766 38.9219 150 37C148.25 35.0625 147.375 32.4922 147.375 29.2891H154.148C154.148 31.1484 154.586 32.5781 155.461 33.5781C156.352 34.5625 157.625 35.0547 159.281 35.0547C160.656 35.0547 161.742 34.6953 162.539 33.9766C163.336 33.2422 163.734 32.2578 163.734 31.0234Z" fill="white"/>
<path d="M7.06641 63.583C7.06641 63.0615 6.85547 62.6426 6.43359 62.3262C6.01758 62.0098 5.3877 61.7637 4.54395 61.5879C3.7002 61.4062 3.04395 61.2012 2.5752 60.9727C2.1123 60.7383 1.7666 60.4541 1.53809 60.1201C1.31543 59.7861 1.2041 59.3818 1.2041 58.9072C1.2041 58.1572 1.51758 57.5391 2.14453 57.0527C2.77148 56.5605 3.57422 56.3145 4.55273 56.3145C5.61328 56.3145 6.46289 56.5781 7.10156 57.1055C7.74609 57.627 8.06836 58.3096 8.06836 59.1533H7.01367C7.01367 58.5967 6.7793 58.1338 6.31055 57.7646C5.84766 57.3955 5.26172 57.2109 4.55273 57.2109C3.86133 57.2109 3.30469 57.3662 2.88281 57.6768C2.4668 57.9814 2.25879 58.3799 2.25879 58.8721C2.25879 59.3467 2.43164 59.7158 2.77734 59.9795C3.12891 60.2373 3.76465 60.4746 4.68457 60.6914C5.61035 60.9082 6.30176 61.1396 6.75879 61.3857C7.22168 61.6318 7.56445 61.9277 7.78711 62.2734C8.00977 62.6191 8.12109 63.0381 8.12109 63.5303C8.12109 64.333 7.7959 64.9746 7.14551 65.4551C6.50098 65.9355 5.65723 66.1758 4.61426 66.1758C3.50684 66.1758 2.60742 65.9092 1.91602 65.376C1.23047 64.8369 0.887695 64.1572 0.887695 63.3369H1.94238C1.9834 63.9521 2.24121 64.4326 2.71582 64.7783C3.19629 65.1182 3.8291 65.2881 4.61426 65.2881C5.34668 65.2881 5.93848 65.127 6.38965 64.8047C6.84082 64.4824 7.06641 64.0752 7.06641 63.583ZM14.1768 66.1758C13.3682 66.1758 12.6357 65.9766 11.9795 65.5781C11.3291 65.1797 10.8223 64.626 10.459 63.917C10.0957 63.2021 9.91406 62.4023 9.91406 61.5176V61.1396C9.91406 60.2256 10.0898 59.4023 10.4414 58.6699C10.7988 57.9375 11.2939 57.3633 11.9268 56.9473C12.5596 56.5254 13.2451 56.3145 13.9834 56.3145C15.1377 56.3145 16.0518 56.71 16.7256 57.501C17.4053 58.2861 17.7451 59.3613 17.7451 60.7266V61.3154H10.96V61.5176C10.96 62.5957 11.2676 63.4951 11.8828 64.2158C12.5039 64.9307 13.2832 65.2881 14.2207 65.2881C14.7832 65.2881 15.2783 65.1855 15.7061 64.9805C16.1396 64.7754 16.5322 64.4473 16.8838 63.9961L17.543 64.4971C16.7695 65.6162 15.6475 66.1758 14.1768 66.1758ZM13.9834 57.2109C13.1924 57.2109 12.5244 57.501 11.9795 58.0811C11.4404 58.6611 11.1123 59.4404 10.9951 60.4189H16.6992V60.3047C16.6699 59.3906 16.4092 58.6465 15.917 58.0723C15.4248 57.498 14.7803 57.2109 13.9834 57.2109ZM25.9102 64.7959C25.2773 65.7158 24.2666 66.1758 22.8779 66.1758C21.8643 66.1758 21.0938 65.8828 20.5664 65.2969C20.0391 64.7051 19.7695 63.832 19.7578 62.6777V56.4902H20.8037V62.5459C20.8037 64.3564 21.5361 65.2617 23.001 65.2617C24.5244 65.2617 25.4883 64.6318 25.8926 63.3721V56.4902H26.9473V66H25.9277L25.9102 64.7959ZM33.4863 61.1045C33.4863 60.1904 33.6621 59.3672 34.0137 58.6348C34.3711 57.9023 34.8721 57.334 35.5166 56.9297C36.167 56.5195 36.9023 56.3145 37.7227 56.3145C38.9883 56.3145 40.0137 56.7598 40.7988 57.6504C41.584 58.5352 41.9766 59.71 41.9766 61.1748V61.3945C41.9766 62.3145 41.7979 63.1436 41.4404 63.8818C41.0889 64.6143 40.5908 65.1797 39.9463 65.5781C39.3018 65.9766 38.5664 66.1758 37.7402 66.1758C36.4805 66.1758 35.4551 65.7334 34.6641 64.8486C33.8789 63.958 33.4863 62.7803 33.4863 61.3154V61.1045ZM34.541 61.3945C34.541 62.5312 34.834 63.4658 35.4199 64.1982C36.0117 64.9248 36.7852 65.2881 37.7402 65.2881C38.6895 65.2881 39.457 64.9248 40.043 64.1982C40.6348 63.4658 40.9307 62.502 40.9307 61.3066V61.1045C40.9307 60.3779 40.7959 59.7129 40.5264 59.1094C40.2568 58.5059 39.8789 58.04 39.3926 57.7119C38.9062 57.3779 38.3496 57.2109 37.7227 57.2109C36.7852 57.2109 36.0205 57.5801 35.4287 58.3184C34.8369 59.0508 34.541 60.0117 34.541 61.2012V61.3945ZM48.5508 57.3867C48.3281 57.3457 48.0908 57.3252 47.8389 57.3252C47.1826 57.3252 46.626 57.5098 46.1689 57.8789C45.7178 58.2422 45.3955 58.7725 45.2021 59.4697V66H44.1562V56.4902H45.1846L45.2021 58.002C45.7588 56.877 46.6523 56.3145 47.8828 56.3145C48.1758 56.3145 48.4072 56.3525 48.5771 56.4287L48.5508 57.3867ZM53.5605 65.2881C54.293 65.2881 54.9053 65.083 55.3975 64.6729C55.8955 64.2568 56.165 63.7207 56.2061 63.0645H57.2168C57.1875 63.6445 57.0059 64.1748 56.6719 64.6553C56.3379 65.1299 55.8926 65.502 55.3359 65.7715C54.7852 66.041 54.1934 66.1758 53.5605 66.1758C52.3125 66.1758 51.3223 65.7422 50.5898 64.875C49.8633 64.0078 49.5 62.8418 49.5 61.377V61.0605C49.5 60.123 49.6641 59.2939 49.9922 58.5732C50.3203 57.8525 50.7891 57.2959 51.3984 56.9033C52.0137 56.5107 52.7314 56.3145 53.5518 56.3145C54.5947 56.3145 55.4531 56.625 56.127 57.2461C56.8066 57.8672 57.1699 58.6846 57.2168 59.6982H56.2061C56.1592 58.9541 55.8896 58.3535 55.3975 57.8965C54.9111 57.4395 54.2959 57.2109 53.5518 57.2109C52.6025 57.2109 51.8643 57.5537 51.3369 58.2393C50.8154 58.9248 50.5547 59.8857 50.5547 61.1221V61.4297C50.5547 62.6426 50.8154 63.5889 51.3369 64.2686C51.8643 64.9482 52.6055 65.2881 53.5605 65.2881ZM53.8506 66.0791L53.7451 66.6416C54.7119 66.7646 55.1953 67.2656 55.1953 68.1445C55.1953 68.6836 54.9639 69.1113 54.501 69.4277C54.0381 69.7441 53.4082 69.9023 52.6113 69.9023L52.5498 69.2168C53.0713 69.2168 53.4961 69.1201 53.8242 68.9268C54.1582 68.7393 54.3252 68.4844 54.3252 68.1621C54.3252 67.8223 54.1963 67.5879 53.9385 67.459C53.6865 67.3301 53.2998 67.2422 52.7783 67.1953L53.0332 66.0791H53.8506ZM65.3291 66C65.2236 65.7012 65.1562 65.2588 65.127 64.6729C64.7578 65.1533 64.2861 65.5254 63.7119 65.7891C63.1436 66.0469 62.54 66.1758 61.9014 66.1758C60.9873 66.1758 60.2461 65.9209 59.6777 65.4111C59.1152 64.9014 58.834 64.2568 58.834 63.4775C58.834 62.5518 59.2178 61.8193 59.9854 61.2803C60.7588 60.7412 61.834 60.4717 63.2109 60.4717H65.1182V59.3906C65.1182 58.7109 64.9072 58.1777 64.4854 57.791C64.0693 57.3984 63.46 57.2021 62.6572 57.2021C61.9248 57.2021 61.3184 57.3896 60.8379 57.7646C60.3574 58.1396 60.1172 58.5908 60.1172 59.1182L59.0625 59.1094C59.0625 58.3535 59.4141 57.7002 60.1172 57.1494C60.8203 56.5928 61.6846 56.3145 62.71 56.3145C63.7705 56.3145 64.6055 56.5811 65.2148 57.1143C65.8301 57.6416 66.1465 58.3799 66.1641 59.3291V63.8291C66.1641 64.749 66.2607 65.4375 66.4541 65.8945V66H65.3291ZM62.0244 65.2441C62.7275 65.2441 63.3545 65.0742 63.9053 64.7344C64.4619 64.3945 64.8662 63.9404 65.1182 63.3721V61.2803H63.2373C62.1885 61.292 61.3682 61.4854 60.7764 61.8604C60.1846 62.2295 59.8887 62.7393 59.8887 63.3896C59.8887 63.9229 60.085 64.3652 60.4775 64.7168C60.876 65.0684 61.3916 65.2441 62.0244 65.2441ZM69.9346 56.4902L69.9697 58.0371C70.3213 57.4629 70.7607 57.0322 71.2881 56.7451C71.8154 56.458 72.4014 56.3145 73.0459 56.3145C74.5459 56.3145 75.498 56.9297 75.9023 58.1602C76.2422 57.5684 76.6963 57.1143 77.2646 56.7979C77.833 56.4756 78.46 56.3145 79.1455 56.3145C81.1846 56.3145 82.2246 57.4277 82.2656 59.6543V66H81.2109V59.7334C81.2051 58.8838 81.0205 58.2539 80.6572 57.8438C80.2998 57.4336 79.7139 57.2285 78.8994 57.2285C78.1436 57.2402 77.5049 57.4863 76.9834 57.9668C76.4619 58.4414 76.1719 59.0215 76.1133 59.707V66H75.0586V59.6543C75.0527 58.8398 74.8594 58.2334 74.4785 57.835C74.1035 57.4307 73.5234 57.2285 72.7383 57.2285C72.0762 57.2285 71.5078 57.4189 71.0332 57.7998C70.5586 58.1748 70.207 58.7344 69.9785 59.4785V66H68.9238V56.4902H69.9346ZM88.6201 66.1758C87.8115 66.1758 87.0791 65.9766 86.4229 65.5781C85.7725 65.1797 85.2656 64.626 84.9023 63.917C84.5391 63.2021 84.3574 62.4023 84.3574 61.5176V61.1396C84.3574 60.2256 84.5332 59.4023 84.8848 58.6699C85.2422 57.9375 85.7373 57.3633 86.3701 56.9473C87.0029 56.5254 87.6885 56.3145 88.4268 56.3145C89.5811 56.3145 90.4951 56.71 91.1689 57.501C91.8486 58.2861 92.1885 59.3613 92.1885 60.7266V61.3154H85.4033V61.5176C85.4033 62.5957 85.7109 63.4951 86.3262 64.2158C86.9473 64.9307 87.7266 65.2881 88.6641 65.2881C89.2266 65.2881 89.7217 65.1855 90.1494 64.9805C90.583 64.7754 90.9756 64.4473 91.3271 63.9961L91.9863 64.4971C91.2129 65.6162 90.0908 66.1758 88.6201 66.1758ZM88.4268 57.2109C87.6357 57.2109 86.9678 57.501 86.4229 58.0811C85.8838 58.6611 85.5557 59.4404 85.4385 60.4189H91.1426V60.3047C91.1133 59.3906 90.8525 58.6465 90.3604 58.0723C89.8682 57.498 89.2236 57.2109 88.4268 57.2109ZM95.2383 56.4902L95.2734 58.1162C95.6309 57.5303 96.0762 57.085 96.6094 56.7803C97.1426 56.4697 97.7314 56.3145 98.376 56.3145C99.3955 56.3145 100.154 56.6016 100.652 57.1758C101.15 57.75 101.402 58.6113 101.408 59.7598V66H100.362V59.751C100.356 58.9014 100.175 58.2686 99.8174 57.8525C99.4658 57.4365 98.9004 57.2285 98.1211 57.2285C97.4707 57.2285 96.8936 57.4336 96.3896 57.8438C95.8916 58.248 95.5225 58.7959 95.2822 59.4873V66H94.2363V56.4902H95.2383ZM105.768 54.0557V56.4902H107.736V57.3516H105.768V63.6885C105.768 64.2158 105.861 64.6084 106.049 64.8662C106.242 65.124 106.562 65.2529 107.007 65.2529C107.183 65.2529 107.467 65.2236 107.859 65.165L107.903 66.0264C107.628 66.126 107.253 66.1758 106.778 66.1758C106.058 66.1758 105.533 65.9678 105.205 65.5518C104.877 65.1299 104.713 64.5117 104.713 63.6973V57.3516H102.964V56.4902H104.713V54.0557H105.768ZM109.16 61.1045C109.16 60.1904 109.336 59.3672 109.688 58.6348C110.045 57.9023 110.546 57.334 111.19 56.9297C111.841 56.5195 112.576 56.3145 113.396 56.3145C114.662 56.3145 115.688 56.7598 116.473 57.6504C117.258 58.5352 117.65 59.71 117.65 61.1748V61.3945C117.65 62.3145 117.472 63.1436 117.114 63.8818C116.763 64.6143 116.265 65.1797 115.62 65.5781C114.976 65.9766 114.24 66.1758 113.414 66.1758C112.154 66.1758 111.129 65.7334 110.338 64.8486C109.553 63.958 109.16 62.7803 109.16 61.3154V61.1045ZM110.215 61.3945C110.215 62.5312 110.508 63.4658 111.094 64.1982C111.686 64.9248 112.459 65.2881 113.414 65.2881C114.363 65.2881 115.131 64.9248 115.717 64.1982C116.309 63.4658 116.604 62.502 116.604 61.3066V61.1045C116.604 60.3779 116.47 59.7129 116.2 59.1094C115.931 58.5059 115.553 58.04 115.066 57.7119C114.58 57.3779 114.023 57.2109 113.396 57.2109C112.459 57.2109 111.694 57.5801 111.103 58.3184C110.511 59.0508 110.215 60.0117 110.215 61.2012V61.3945ZM131.854 61.3418C131.854 62.8242 131.525 64.002 130.869 64.875C130.213 65.7422 129.334 66.1758 128.232 66.1758C126.932 66.1758 125.936 65.7188 125.244 64.8047V69.6562H124.198V56.4902H125.174L125.227 57.835C125.912 56.8213 126.905 56.3145 128.206 56.3145C129.343 56.3145 130.233 56.7451 130.878 57.6064C131.528 58.4678 131.854 59.6631 131.854 61.1924V61.3418ZM130.799 61.1572C130.799 59.9443 130.55 58.9863 130.052 58.2832C129.554 57.5801 128.859 57.2285 127.969 57.2285C127.324 57.2285 126.771 57.3838 126.308 57.6943C125.845 58.0049 125.49 58.4561 125.244 59.0479V63.6094C125.496 64.1543 125.856 64.5703 126.325 64.8574C126.794 65.1445 127.348 65.2881 127.986 65.2881C128.871 65.2881 129.56 64.9365 130.052 64.2334C130.55 63.5244 130.799 62.499 130.799 61.1572ZM137.874 66.1758C137.065 66.1758 136.333 65.9766 135.677 65.5781C135.026 65.1797 134.52 64.626 134.156 63.917C133.793 63.2021 133.611 62.4023 133.611 61.5176V61.1396C133.611 60.2256 133.787 59.4023 134.139 58.6699C134.496 57.9375 134.991 57.3633 135.624 56.9473C136.257 56.5254 136.942 56.3145 137.681 56.3145C138.835 56.3145 139.749 56.71 140.423 57.501C141.103 58.2861 141.442 59.3613 141.442 60.7266V61.3154H134.657V61.5176C134.657 62.5957 134.965 63.4951 135.58 64.2158C136.201 64.9307 136.98 65.2881 137.918 65.2881C138.48 65.2881 138.976 65.1855 139.403 64.9805C139.837 64.7754 140.229 64.4473 140.581 63.9961L141.24 64.4971C140.467 65.6162 139.345 66.1758 137.874 66.1758ZM137.681 57.2109C136.89 57.2109 136.222 57.501 135.677 58.0811C135.138 58.6611 134.81 59.4404 134.692 60.4189H140.396V60.3047C140.367 59.3906 140.106 58.6465 139.614 58.0723C139.122 57.498 138.478 57.2109 137.681 57.2109ZM149.186 63.583C149.186 63.0615 148.975 62.6426 148.553 62.3262C148.137 62.0098 147.507 61.7637 146.663 61.5879C145.819 61.4062 145.163 61.2012 144.694 60.9727C144.231 60.7383 143.886 60.4541 143.657 60.1201C143.435 59.7861 143.323 59.3818 143.323 58.9072C143.323 58.1572 143.637 57.5391 144.264 57.0527C144.891 56.5605 145.693 56.3145 146.672 56.3145C147.732 56.3145 148.582 56.5781 149.221 57.1055C149.865 57.627 150.188 58.3096 150.188 59.1533H149.133C149.133 58.5967 148.898 58.1338 148.43 57.7646C147.967 57.3955 147.381 57.2109 146.672 57.2109C145.98 57.2109 145.424 57.3662 145.002 57.6768C144.586 57.9814 144.378 58.3799 144.378 58.8721C144.378 59.3467 144.551 59.7158 144.896 59.9795C145.248 60.2373 145.884 60.4746 146.804 60.6914C147.729 60.9082 148.421 61.1396 148.878 61.3857C149.341 61.6318 149.684 61.9277 149.906 62.2734C150.129 62.6191 150.24 63.0381 150.24 63.5303C150.24 64.333 149.915 64.9746 149.265 65.4551C148.62 65.9355 147.776 66.1758 146.733 66.1758C145.626 66.1758 144.727 65.9092 144.035 65.376C143.35 64.8369 143.007 64.1572 143.007 63.3369H144.062C144.103 63.9521 144.36 64.4326 144.835 64.7783C145.315 65.1182 145.948 65.2881 146.733 65.2881C147.466 65.2881 148.058 65.127 148.509 64.8047C148.96 64.4824 149.186 64.0752 149.186 63.583ZM158.309 63.583C158.309 63.0615 158.098 62.6426 157.676 62.3262C157.26 62.0098 156.63 61.7637 155.786 61.5879C154.942 61.4062 154.286 61.2012 153.817 60.9727C153.354 60.7383 153.009 60.4541 152.78 60.1201C152.558 59.7861 152.446 59.3818 152.446 58.9072C152.446 58.1572 152.76 57.5391 153.387 57.0527C154.014 56.5605 154.816 56.3145 155.795 56.3145C156.855 56.3145 157.705 56.5781 158.344 57.1055C158.988 57.627 159.311 58.3096 159.311 59.1533H158.256C158.256 58.5967 158.021 58.1338 157.553 57.7646C157.09 57.3955 156.504 57.2109 155.795 57.2109C155.104 57.2109 154.547 57.3662 154.125 57.6768C153.709 57.9814 153.501 58.3799 153.501 58.8721C153.501 59.3467 153.674 59.7158 154.02 59.9795C154.371 60.2373 155.007 60.4746 155.927 60.6914C156.853 60.9082 157.544 61.1396 158.001 61.3857C158.464 61.6318 158.807 61.9277 159.029 62.2734C159.252 62.6191 159.363 63.0381 159.363 63.5303C159.363 64.333 159.038 64.9746 158.388 65.4551C157.743 65.9355 156.899 66.1758 155.856 66.1758C154.749 66.1758 153.85 65.9092 153.158 65.376C152.473 64.8369 152.13 64.1572 152.13 63.3369H153.185C153.226 63.9521 153.483 64.4326 153.958 64.7783C154.438 65.1182 155.071 65.2881 155.856 65.2881C156.589 65.2881 157.181 65.127 157.632 64.8047C158.083 64.4824 158.309 64.0752 158.309 63.583ZM161.156 61.1045C161.156 60.1904 161.332 59.3672 161.684 58.6348C162.041 57.9023 162.542 57.334 163.187 56.9297C163.837 56.5195 164.572 56.3145 165.393 56.3145C166.658 56.3145 167.684 56.7598 168.469 57.6504C169.254 58.5352 169.646 59.71 169.646 61.1748V61.3945C169.646 62.3145 169.468 63.1436 169.11 63.8818C168.759 64.6143 168.261 65.1797 167.616 65.5781C166.972 65.9766 166.236 66.1758 165.41 66.1758C164.15 66.1758 163.125 65.7334 162.334 64.8486C161.549 63.958 161.156 62.7803 161.156 61.3154V61.1045ZM162.211 61.3945C162.211 62.5312 162.504 63.4658 163.09 64.1982C163.682 64.9248 164.455 65.2881 165.41 65.2881C166.359 65.2881 167.127 64.9248 167.713 64.1982C168.305 63.4658 168.601 62.502 168.601 61.3066V61.1045C168.601 60.3779 168.466 59.7129 168.196 59.1094C167.927 58.5059 167.549 58.04 167.062 57.7119C166.576 57.3779 166.02 57.2109 165.393 57.2109C164.455 57.2109 163.69 57.5801 163.099 58.3184C162.507 59.0508 162.211 60.0117 162.211 61.2012V61.3945ZM177.829 66C177.724 65.7012 177.656 65.2588 177.627 64.6729C177.258 65.1533 176.786 65.5254 176.212 65.7891C175.644 66.0469 175.04 66.1758 174.401 66.1758C173.487 66.1758 172.746 65.9209 172.178 65.4111C171.615 64.9014 171.334 64.2568 171.334 63.4775C171.334 62.5518 171.718 61.8193 172.485 61.2803C173.259 60.7412 174.334 60.4717 175.711 60.4717H177.618V59.3906C177.618 58.7109 177.407 58.1777 176.985 57.791C176.569 57.3984 175.96 57.2021 175.157 57.2021C174.425 57.2021 173.818 57.3896 173.338 57.7646C172.857 58.1396 172.617 58.5908 172.617 59.1182L171.562 59.1094C171.562 58.3535 171.914 57.7002 172.617 57.1494C173.32 56.5928 174.185 56.3145 175.21 56.3145C176.271 56.3145 177.105 56.5811 177.715 57.1143C178.33 57.6416 178.646 58.3799 178.664 59.3291V63.8291C178.664 64.749 178.761 65.4375 178.954 65.8945V66H177.829ZM174.524 65.2441C175.228 65.2441 175.854 65.0742 176.405 64.7344C176.962 64.3945 177.366 63.9404 177.618 63.3721V61.2803H175.737C174.688 61.292 173.868 61.4854 173.276 61.8604C172.685 62.2295 172.389 62.7393 172.389 63.3896C172.389 63.9229 172.585 64.3652 172.978 64.7168C173.376 65.0684 173.892 65.2441 174.524 65.2441ZM182.654 66H181.6V52.5H182.654V66Z" fill="white"/>
</svg>
